<svg width="48" height="49" viewBox="0 0 48 49" fill="none" xmlns="http://www.w3.org/2000/svg">
<path fill-rule="evenodd" clip-rule="evenodd" d="M40.3275 43.9956C41.565 43.9956 42.7425 43.4931 43.6125 42.6156C44.4956 41.7287 44.994 40.5297 45 39.2781C45.0057 38.6655 44.8863 38.0581 44.649 37.4932C44.4117 36.9284 44.0615 36.4179 43.62 35.9931C43.1908 35.5574 42.6795 35.2112 42.1157 34.9743C41.5518 34.7374 40.9466 34.6147 40.335 34.6131C39.885 34.6131 39.435 34.6581 38.985 34.7556H38.895L25.08 21.4131L21.885 18.3306L15.885 12.6606L14.7525 11.4531L13.2975 10.0431C12.1097 8.91781 10.8134 7.91291 9.4275 7.04313C8.40558 6.3685 7.22269 5.97765 6 5.91063H3.75C3.55109 5.91063 3.36032 5.98965 3.21967 6.1303C3.07902 6.27095 3 6.46172 3 6.66063C3 6.85954 3.07902 7.05031 3.21967 7.19096C3.36032 7.33161 3.55109 7.41063 3.75 7.41063H6C6.93 7.49313 7.815 7.80813 8.595 8.31813C9.90163 9.14187 11.1227 10.0941 12.24 11.1606L13.74 12.5931V22.0881C13.755 23.8806 14.2125 25.6356 15.0825 27.2031L15.15 27.3156L12.2025 30.2031C12.06 30.3606 11.9775 30.5631 11.9475 30.7806V34.6206H11.8125C10.9005 34.8136 10.0688 35.2791 9.4275 35.9556C8.98596 36.3804 8.63582 36.8909 8.39852 37.4557C8.16122 38.0206 8.04178 38.628 8.0475 39.2406C8.0494 40.493 8.54845 41.6935 9.435 42.5781C9.86864 43.0151 10.3845 43.3619 10.9528 43.5986C11.5211 43.8353 12.1306 43.9571 12.7463 43.9571C13.3619 43.9571 13.9714 43.8353 14.5397 43.5986C15.108 43.3619 15.6239 43.0151 16.0575 42.5781C16.9399 41.6907 17.4382 40.4921 17.445 39.2406C17.4507 38.628 17.3313 38.0206 17.094 37.4557C16.8567 36.8909 16.5065 36.3804 16.065 35.9556L16.0125 35.8581C15.3564 35.2355 14.5372 34.8116 13.65 34.6356H13.515V31.1031L16.0125 28.6056L16.1325 28.7481C16.3725 29.0106 16.62 29.2581 16.8825 29.4981C17.8634 30.4889 19.0318 31.2743 20.3194 31.8087C21.6071 32.3431 22.9883 32.6157 24.3825 32.6106H34.5L37.5 35.4906L37.38 35.6106L37.26 35.7156C37.185 35.7831 37.11 35.8506 37.05 35.9331C36.6085 36.3579 36.2583 36.8684 36.021 37.4332C35.7837 37.9981 35.6643 38.6055 35.67 39.2181C35.67 40.4706 36.1725 41.6706 37.05 42.5556C37.4741 43.0003 37.9821 43.3565 38.5446 43.6037C39.1072 43.8508 39.7132 43.9841 40.3275 43.9956ZM14.955 36.9531L15.0075 37.0056V37.0581C15.5886 37.6542 15.9095 38.4565 15.8997 39.289C15.8898 40.1214 15.5501 40.916 14.955 41.4981C14.6645 41.7934 14.3183 42.0283 13.9365 42.189C13.5547 42.3498 13.1449 42.4332 12.7306 42.4346C12.3164 42.436 11.906 42.3553 11.5231 42.1971C11.1402 42.039 10.7925 41.8065 10.5 41.5131C10.2007 41.2198 9.96286 40.8698 9.80051 40.4834C9.63816 40.0971 9.55454 39.6822 9.55454 39.2631C9.55454 38.8441 9.63816 38.4292 9.80051 38.0428C9.96286 37.6565 10.2007 37.3064 10.5 37.0131C10.7944 36.7203 11.1464 36.4918 11.5337 36.342C11.921 36.1923 12.3352 36.1245 12.75 36.1431C13.56 36.1431 14.34 36.4281 14.955 36.9531ZM24.3225 31.0731C23.1384 31.0811 21.9645 30.8538 20.8689 30.4043C19.7734 29.9548 18.7781 29.2922 17.9408 28.4549C17.1034 27.6175 16.4408 26.6222 15.9913 25.5267C15.5419 24.4312 15.3145 23.2572 15.3225 22.0731V14.1306L32.8875 31.0956L24.3225 31.0731ZM38.0775 37.0131C38.3734 36.7209 38.7252 36.4913 39.1117 36.338C39.4983 36.1847 39.9118 36.1107 40.3275 36.1206C40.9511 36.1235 41.5598 36.3114 42.0765 36.6606C42.5932 37.0097 42.9946 37.5044 43.23 38.0819C43.4653 38.6593 43.5239 39.2937 43.3984 39.9045C43.2729 40.5154 42.969 41.0752 42.525 41.5131C42.2433 41.8107 41.9037 42.0473 41.5271 42.2086C41.1504 42.3698 40.7447 42.4522 40.335 42.4506C39.7056 42.4533 39.0896 42.2687 38.5654 41.9203C38.0412 41.5719 37.6325 41.0754 37.3913 40.494C37.1501 39.9127 37.0872 39.2727 37.2108 38.6555C37.3343 38.0383 37.6386 37.4719 38.085 37.0281L38.0775 37.0131Z" fill="black"/>
</svg>
