<svg width="48" height="49" viewBox="0 0 48 49" fill="none" xmlns="http://www.w3.org/2000/svg">
<g clip-path="url(#clip0_1_161)">
<path fill-rule="evenodd" clip-rule="evenodd" d="M21.7875 14.9031C22.5092 14.6165 23.2944 14.5279 24.0619 14.6466C24.8293 14.7653 25.5511 15.0869 26.1525 15.5781C26.9647 16.2537 27.5897 17.1266 27.9675 18.1131C28.14 18.6381 28.275 19.1856 28.3725 19.7331L28.575 21.6231L28.7775 21.8931L29.0475 22.1631L34.62 25.3281C34.8189 25.4345 34.9674 25.6156 35.0328 25.8315C35.0982 26.0474 35.0752 26.2805 34.9688 26.4794C34.8623 26.6783 34.6813 26.8268 34.4654 26.8922C34.2495 26.9576 34.0164 26.9345 33.8175 26.8281L28.0875 23.5431C27.7875 23.3181 27.5325 23.0481 27.3375 22.7331L27 22.1331L26.805 19.9731C26.7329 19.536 26.6199 19.1066 26.4675 18.6906C26.4 18.5556 26.3325 18.3531 26.265 18.2181C26.0287 17.6859 25.6594 17.2236 25.1925 16.8756C24.8185 16.5818 24.3777 16.385 23.9093 16.3025C23.4409 16.2201 22.9594 16.2547 22.5075 16.4031C21.5625 16.8081 21.3675 17.6631 21.3 19.1631C21.2634 21.7606 21.6019 24.3498 22.305 26.8506C22.5225 27.9681 22.7925 29.0706 23.055 30.2181C23.2333 31.0925 23.4841 31.9504 23.805 32.7831C23.94 33.1806 24.5475 33.3831 25.62 33.4506C26.6925 33.5181 32.535 33.3831 33.345 33.3831H33.75L34.0275 33.6906C34.1265 33.7852 34.1977 33.9051 34.2334 34.0374C34.2691 34.1696 34.2679 34.309 34.23 34.4406L32.73 43.4406C32.655 43.7256 32.73 44.0256 32.9325 44.2431C33.0016 44.3788 33.1104 44.4902 33.2444 44.5625C33.3783 44.6349 33.5312 44.6647 33.6825 44.6481C34.1475 44.6631 34.5675 44.3481 34.6875 43.8981C35.43 41.4756 36.0975 39.1131 36.7725 36.6906C36.84 36.4206 36.9075 36.2181 36.975 36.0156C37.44 34.5306 37.845 33.0456 37.2375 31.8381C37.17 31.6356 36.975 31.4331 36.0975 31.3656C35.6925 31.3056 31.5975 30.8256 29.9175 30.5556L28.3725 30.3531C28.1487 30.3263 27.9448 30.2116 27.8055 30.0344C27.6663 29.8572 27.6032 29.6319 27.63 29.4081C27.6569 29.1843 27.7715 28.9804 27.9487 28.8412C28.126 28.7019 28.3512 28.6388 28.575 28.6656L30.1875 28.8681C31.8 29.1381 35.895 29.6106 36.3 29.6781C36.84 29.7456 38.1825 29.8806 38.7825 31.0281C39.75 32.7831 39.12 34.8006 38.52 36.5556L38.3175 37.1631C37.6425 39.5181 36.9075 41.9481 36.2325 44.3706C36.0637 44.9344 35.7181 45.429 35.2469 45.7814C34.7756 46.1339 34.2035 46.3255 33.615 46.3281H33.5475C33.1542 46.3129 32.7685 46.2148 32.4157 46.0404C32.0629 45.8659 31.7509 45.6189 31.5 45.3156C31.2472 45.021 31.0645 44.6729 30.9658 44.2974C30.867 43.922 30.8548 43.529 30.93 43.1481L32.28 35.1231C30.3975 35.1231 26.295 35.1906 25.3575 35.1231C24.75 35.0556 22.74 34.9206 22.1325 33.3681C21.7991 32.4916 21.5309 31.5916 21.33 30.6756C21.0525 29.4906 20.7825 28.3131 20.58 27.2406C19.8645 24.5811 19.5262 21.8343 19.575 19.0806C19.6425 17.9031 19.71 15.8481 21.7875 14.9031ZM16.7175 20.2431C16.9269 20.1912 17.1482 20.2203 17.3371 20.3247C17.5259 20.4291 17.6683 20.601 17.7356 20.806C17.803 21.0109 17.7904 21.2338 17.7003 21.4299C17.6103 21.6259 17.4494 21.7807 17.25 21.8631C15.7228 22.3472 14.3352 23.1934 13.2056 24.3295C12.076 25.4657 11.2378 26.8581 10.7625 28.3881C10.0348 30.9087 10.3033 33.6124 11.5125 35.9406C12.2255 37.3074 13.2499 38.4874 14.503 39.3853C15.7561 40.2832 17.2028 40.8739 18.7262 41.1097C20.2497 41.3454 21.8072 41.2197 23.2731 40.7426C24.739 40.2655 26.0722 39.4504 27.165 38.3631C27.3261 38.203 27.5443 38.1134 27.7714 38.1141C27.9986 38.1148 28.2161 38.2057 28.3763 38.3669C28.5364 38.528 28.6259 38.7461 28.6252 38.9733C28.6245 39.2004 28.5336 39.418 28.3725 39.5781C26.8925 41.0446 25.0396 42.0783 23.0144 42.5674C20.9891 43.0566 18.8687 42.9824 16.8825 42.3531C13.9454 41.4373 11.486 39.4036 10.035 36.6906C8.63268 33.9612 8.34236 30.7946 9.22501 27.8556C10.335 24.2481 13.125 21.4056 16.7175 20.2431ZM25.755 4.32812C26.94 4.34312 28.065 4.86062 28.845 5.75312C29.2591 6.17683 29.5768 6.68507 29.7761 7.24301C29.9755 7.80096 30.0519 8.3954 30 8.98562C29.9428 10.1767 29.4236 11.2987 28.5525 12.1131C28.1577 12.504 27.6892 12.8127 27.1742 13.0212C26.6593 13.2298 26.1081 13.3341 25.5525 13.3281H25.4175C24.2278 13.2678 23.109 12.7444 22.3002 11.8698C21.4915 10.9952 21.0571 9.83887 21.09 8.64812C21.1419 7.47216 21.6472 6.362 22.5 5.55062C22.9306 5.13581 23.4415 4.81339 24.0012 4.60317C24.561 4.39294 25.1578 4.29934 25.755 4.32812ZM25.605 5.94062H25.5375C24.8164 5.94436 24.1252 6.22941 23.6111 6.7351C23.097 7.24079 22.8006 7.92717 22.785 8.64812C22.725 9.39812 23.0025 10.1481 23.535 10.6731C23.7851 10.9421 24.0864 11.1583 24.4213 11.309C24.7562 11.4597 25.1179 11.5418 25.485 11.5506C26.235 11.5806 26.955 11.3106 27.5025 10.8006V10.8081C27.7847 10.5678 28.0049 10.2632 28.1446 9.91986C28.2843 9.57655 28.3393 9.20466 28.305 8.83562C28.365 8.08562 28.0875 7.33562 27.555 6.81062C27.304 6.54336 27.0024 6.32878 26.6675 6.1794C26.3327 6.03003 25.9715 5.94885 25.605 5.94062Z" fill="black"/>
</g>
<defs>
<clipPath id="clip0_1_161">
<rect width="48" height="48" fill="white" transform="translate(0 0.953125)"/>
</clipPath>
</defs>
</svg>
