<svg width="48" height="49" viewBox="0 0 48 49" fill="none" xmlns="http://www.w3.org/2000/svg">
<g clip-path="url(#clip0_1_169)">
<path fill-rule="evenodd" clip-rule="evenodd" d="M9.75 30.1562H38.25V5.40625H9.75V30.1562ZM24.75 3.90625V3.15625C24.75 2.95734 24.671 2.76657 24.5303 2.62592C24.3897 2.48527 24.1989 2.40625 24 2.40625C23.8011 2.40625 23.6103 2.48527 23.4697 2.62592C23.329 2.76657 23.25 2.95734 23.25 3.15625V3.90625H6.75C6.55109 3.90625 6.36032 3.98527 6.21967 4.12592C6.07902 4.26657 6 4.45734 6 4.65625C6 4.85516 6.07902 5.04593 6.21967 5.18658C6.36032 5.32723 6.55109 5.40625 6.75 5.40625H8.25V30.9062C8.25 31.1052 8.32902 31.2959 8.46967 31.4366C8.61032 31.5772 8.80109 31.6562 9 31.6562H39C39.1989 31.6562 39.3897 31.5772 39.5303 31.4366C39.671 31.2959 39.75 31.1052 39.75 30.9062V5.40625H41.25C41.4489 5.40625 41.6397 5.32723 41.7803 5.18658C41.921 5.04593 42 4.85516 42 4.65625C42 4.45734 41.921 4.26657 41.7803 4.12592C41.6397 3.98527 41.4489 3.90625 41.25 3.90625H24.75ZM24.75 45.9062V34.6562H30C30.1989 34.6562 30.3897 34.5772 30.5303 34.4366C30.671 34.2959 30.75 34.1052 30.75 33.9062C30.75 33.7073 30.671 33.5166 30.5303 33.3759C30.3897 33.2353 30.1989 33.1562 30 33.1562H18C17.8011 33.1562 17.6103 33.2353 17.4697 33.3759C17.329 33.5166 17.25 33.7073 17.25 33.9062C17.25 34.1052 17.329 34.2959 17.4697 34.4366C17.6103 34.5772 17.8011 34.6562 18 34.6562H23.25V45.9062H14.25C14.0511 45.9062 13.8603 45.9853 13.7197 46.1259C13.579 46.2666 13.5 46.4573 13.5 46.6562C13.5 46.8552 13.579 47.0459 13.7197 47.1866C13.8603 47.3272 14.0511 47.4062 14.25 47.4062H33.75C33.9489 47.4062 34.1397 47.3272 34.2803 47.1866C34.421 47.0459 34.5 46.8552 34.5 46.6562C34.5 46.4573 34.421 46.2666 34.2803 46.1259C34.1397 45.9853 33.9489 45.9062 33.75 45.9062H24.75ZM29.4375 17.7812C29.4375 17.5823 29.3585 17.3916 29.2178 17.2509C29.0772 17.1103 28.8864 17.0312 28.6875 17.0312H24.75V13.0938C24.75 12.8948 24.671 12.7041 24.5303 12.5634C24.3897 12.4228 24.1989 12.3438 24 12.3438C22.6073 12.4169 21.2957 13.0217 20.3358 14.0334C19.3758 15.0451 18.8407 16.3866 18.8407 17.7812C18.8407 19.1759 19.3758 20.5174 20.3358 21.5291C21.2957 22.5408 22.6073 23.1456 24 23.2188C27 23.2188 29.4375 20.7812 29.4375 17.7812Z" fill="black"/>
</g>
<defs>
<clipPath id="clip0_1_169">
<rect width="48" height="48" fill="white" transform="translate(0 0.90625)"/>
</clipPath>
</defs>
</svg>
