<svg width="48" height="49" viewBox="0 0 48 49" fill="none" xmlns="http://www.w3.org/2000/svg">
<g clip-path="url(#clip0_1_186)">
<path fill-rule="evenodd" clip-rule="evenodd" d="M25.2 14.4062C29.49 14.4062 33 17.9087 33 22.2062V31.4087C33 32.7887 31.875 33.9062 30.5025 33.9062H29.2725L29.2125 45.1188C29.2125 46.5288 28.275 47.4062 26.7675 47.4062H21.0075C20.4108 47.4062 19.8385 47.1692 19.4165 46.7472C18.9946 46.3253 18.7575 45.753 18.7575 45.1562L18.75 33.9363L17.4975 33.9062C16.8351 33.9062 16.1999 33.6431 15.7315 33.1747C15.2631 32.7064 15 32.0711 15 31.4087V22.2137C15 17.9088 18.5025 14.4062 22.8 14.4062H25.2ZM25.2 15.9062H22.8C21.1304 15.9102 19.5302 16.5752 18.3496 17.7559C17.169 18.9365 16.504 20.5366 16.5 22.2062V31.4087C16.5 31.9562 16.95 32.4062 17.4975 32.4062H18.72C19.5675 32.4062 20.25 33.0888 20.25 33.9363V45.1562C20.25 45.2554 20.2696 45.3535 20.3078 45.445C20.346 45.5365 20.4019 45.6195 20.4723 45.6892C20.5428 45.759 20.6263 45.8141 20.7182 45.8513C20.81 45.8886 20.9084 45.9072 21.0075 45.9062H26.7675C27.6375 45.9062 27.7125 45.5013 27.7125 45.1188L27.75 33.9287C27.75 33.0887 28.4325 32.4062 29.2725 32.4062H30.5025C31.05 32.4062 31.5 31.9562 31.5 31.4087V22.2137C31.5 20.5422 30.8365 18.939 29.6552 17.7563C28.474 16.5737 26.8716 15.9082 25.2 15.9062ZM37.62 18.9062C39.1789 18.9082 40.6733 19.5284 41.7756 20.6307C42.8779 21.7329 43.498 23.2274 43.5 24.7863V31.5663C43.5004 32.1716 43.2663 32.7535 42.8468 33.1899C42.4272 33.6262 41.8549 33.883 41.25 33.9062V40.4237C41.248 41.0815 40.9858 41.7118 40.5207 42.177C40.0556 42.6421 39.4253 42.9043 38.7675 42.9062H34.545C33.9369 42.9043 33.3543 42.6618 32.9244 42.2319C32.4944 41.8019 32.252 41.2193 32.25 40.6112V35.3612C32.25 35.1623 32.329 34.9716 32.4697 34.8309C32.6103 34.6903 32.8011 34.6112 33 34.6112C33.1989 34.6112 33.3897 34.6903 33.5303 34.8309C33.671 34.9716 33.75 35.1623 33.75 35.3612V40.6112C33.75 41.0462 34.11 41.4062 34.545 41.4062H38.76C39.3075 41.4062 39.75 40.9637 39.75 40.4237V33.5088C39.75 32.9013 40.245 32.4062 40.8525 32.4062H41.16C41.625 32.4062 42 32.0313 42 31.5663V24.7863C41.998 23.6252 41.5359 22.5123 40.7149 21.6913C39.894 20.8703 38.781 20.4082 37.62 20.4062H35.88C35.6811 20.4062 35.4903 20.3272 35.3497 20.1866C35.209 20.0459 35.13 19.8552 35.13 19.6562C35.13 19.4573 35.209 19.2666 35.3497 19.1259C35.4903 18.9853 35.6811 18.9062 35.88 18.9062H37.62ZM12.12 18.9062C12.3189 18.9062 12.5097 18.9853 12.6503 19.1259C12.791 19.2666 12.87 19.4573 12.87 19.6562C12.87 19.8552 12.791 20.0459 12.6503 20.1866C12.5097 20.3272 12.3189 20.4062 12.12 20.4062H10.38C9.21896 20.4082 8.10604 20.8703 7.28506 21.6913C6.46408 22.5123 6.00198 23.6252 6 24.7863V31.5663C6 32.0313 6.375 32.4062 6.84 32.4062H7.14C7.755 32.4062 8.25 32.9013 8.25 33.5088V40.4163C8.25 40.9638 8.6925 41.4062 9.2325 41.4062H13.455C13.89 41.4062 14.25 41.0462 14.25 40.6112V35.3612C14.25 35.1623 14.329 34.9716 14.4697 34.8309C14.6103 34.6903 14.8011 34.6112 15 34.6112C15.1989 34.6112 15.3897 34.6903 15.5303 34.8309C15.671 34.9716 15.75 35.1623 15.75 35.3612V40.6112C15.748 41.2193 15.5056 41.8019 15.0756 42.2319C14.6457 42.6618 14.0631 42.9043 13.455 42.9062H9.225C8.56851 42.9023 7.94014 42.6392 7.47663 42.1743C7.01312 41.7094 6.75197 41.0802 6.75 40.4237V33.8988C6.14771 33.8756 5.57759 33.6209 5.15843 33.1878C4.73928 32.7546 4.50342 32.1765 4.5 31.5737V24.7863C4.50198 23.2274 5.12212 21.7329 6.2244 20.6307C7.32669 19.5284 8.82114 18.9082 10.38 18.9062H12.12ZM36.75 9.90625C37.2429 9.90674 37.731 10.0043 38.1862 10.1934C38.6415 10.3825 39.055 10.6594 39.4032 11.0083C39.7514 11.3573 40.0275 11.7714 40.2157 12.227C40.4039 12.6826 40.5005 13.1708 40.5 13.6638C40.4995 14.1567 40.4019 14.6447 40.2128 15.1C40.0237 15.5552 39.7468 15.9687 39.3979 16.317C39.049 16.6652 38.6349 16.9413 38.1793 17.1294C37.7237 17.3176 37.2355 17.4142 36.7425 17.4138C35.7469 17.4128 34.7926 17.0163 34.0893 16.3116C33.386 15.607 32.9915 14.6518 32.9925 13.6562C32.9935 12.6607 33.3899 11.7063 34.0946 11.003C34.7993 10.2998 35.7544 9.90526 36.75 9.90625ZM11.25 9.90625C11.7429 9.90674 12.231 10.0043 12.6862 10.1934C13.1414 10.3825 13.555 10.6594 13.9032 11.0083C14.2514 11.3573 14.5275 11.7714 14.7157 12.227C14.9039 12.6826 15.0005 13.1708 15 13.6638C14.9995 14.1567 14.9019 14.6447 14.7128 15.1C14.5237 15.5552 14.2468 15.9687 13.8979 16.317C13.549 16.6652 13.1349 16.9413 12.6793 17.1294C12.2237 17.3176 11.7354 17.4142 11.2425 17.4138C10.2469 17.4128 9.29256 17.0163 8.5893 16.3116C7.88604 15.607 7.49151 14.6518 7.4925 13.6562C7.49349 12.6607 7.88993 11.7063 8.5946 11.003C9.29927 10.2998 10.2544 9.90526 11.25 9.90625ZM36.75 11.4062C36.1533 11.4062 35.581 11.6433 35.159 12.0653C34.7371 12.4872 34.5 13.0595 34.5 13.6562C34.5 14.253 34.7371 14.8253 35.159 15.2472C35.581 15.6692 36.1533 15.9062 36.75 15.9062C37.3467 15.9062 37.919 15.6692 38.341 15.2472C38.7629 14.8253 39 14.253 39 13.6562C39 13.0595 38.7629 12.4872 38.341 12.0653C37.919 11.6433 37.3467 11.4062 36.75 11.4062ZM11.25 11.4062C10.6533 11.4062 10.081 11.6433 9.65901 12.0653C9.23705 12.4872 9 13.0595 9 13.6562C9 14.253 9.23705 14.8253 9.65901 15.2472C10.081 15.6692 10.6533 15.9062 11.25 15.9062C11.8467 15.9062 12.419 15.6692 12.841 15.2472C13.2629 14.8253 13.5 14.253 13.5 13.6562C13.5 13.0595 13.2629 12.4872 12.841 12.0653C12.419 11.6433 11.8467 11.4062 11.25 11.4062ZM24 2.40625C25.3924 2.40625 26.7277 2.95937 27.7123 3.94394C28.6969 4.92851 29.25 6.26386 29.25 7.65625C29.25 9.04864 28.6969 10.384 27.7123 11.3686C26.7277 12.3531 25.3924 12.9062 24 12.9062C22.6076 12.9062 21.2723 12.3531 20.2877 11.3686C19.3031 10.384 18.75 9.04864 18.75 7.65625C18.75 6.26386 19.3031 4.92851 20.2877 3.94394C21.2723 2.95937 22.6076 2.40625 24 2.40625ZM24 3.90625C23.0044 3.90724 22.0501 4.30368 21.3468 5.00835C20.6435 5.71302 20.249 6.66819 20.25 7.66375C20.251 8.65931 20.6474 9.61369 21.3521 10.317C22.0568 11.0202 23.0119 11.4147 24.0075 11.4138C24.5004 11.4133 24.9885 11.3157 25.4437 11.1266C25.8989 10.9375 26.3125 10.6606 26.6607 10.3117C27.0089 9.96273 27.285 9.54865 27.4732 9.09303C27.6614 8.63742 27.758 8.1492 27.7575 7.65625C27.757 7.1633 27.6594 6.67528 27.4703 6.22004C27.2812 5.7648 27.0043 5.35127 26.6554 5.00305C26.3065 4.65483 25.8924 4.37874 25.4368 4.19055C24.9812 4.00236 24.4929 3.90576 24 3.90625Z" fill="black"/>
</g>
<defs>
<clipPath id="clip0_1_186">
<rect width="48" height="48" fill="white" transform="translate(0 0.90625)"/>
</clipPath>
</defs>
</svg>
