<svg width="48" height="49" viewBox="0 0 48 49" fill="none" xmlns="http://www.w3.org/2000/svg">
<g clip-path="url(#clip0_1_194)">
<path fill-rule="evenodd" clip-rule="evenodd" d="M32.325 3.10938C33.0225 3.10938 33.675 3.37188 34.1775 3.85938C35.19 4.83438 36.9525 7.11438 37.395 11.4719C37.4054 11.5705 37.3961 11.6701 37.3677 11.7651C37.3393 11.86 37.2923 11.9484 37.2296 12.0252C37.1668 12.1019 37.0895 12.1654 37.002 12.212C36.9145 12.2587 36.8187 12.2875 36.72 12.2969C36.5217 12.3138 36.3246 12.2527 36.1706 12.1267C36.0166 12.0007 35.9177 11.8196 35.895 11.6219C35.505 7.74438 33.9975 5.77188 33.1425 4.93938C32.9199 4.72786 32.6246 4.60976 32.3175 4.60938H8.415L8.52 4.72188C12.7725 10.1894 11.1 16.5044 8.9175 22.7294L8.7225 23.2994L8.4225 24.1469L8.2125 24.7094C6.7575 28.7594 5.25 32.9369 5.25 36.8594C5.25 37.8119 5.295 38.6519 5.37 39.3944C5.43 39.0044 5.505 38.6219 5.595 38.2694C6.1125 36.4469 7.095 35.3594 8.25 35.3594H30.285C30.3632 33.6443 30.635 31.9435 31.095 30.2894C31.1477 30.0974 31.2745 29.9343 31.4475 29.8358C31.6205 29.7374 31.8256 29.7117 32.0175 29.7644C32.2094 29.8171 32.3726 29.9439 32.4711 30.1169C32.5695 30.2899 32.5952 30.4949 32.5425 30.6869C32.0925 32.3519 31.8525 33.8819 31.7925 35.3594H34.5C36.21 35.3594 37.5 37.7819 37.5 40.9844C37.5 44.1869 36.21 46.6094 34.5 46.6094H8.25C8.2275 46.6094 8.1525 46.6094 8.04 46.5869C7.89 46.5719 7.7475 46.5419 7.6125 46.4894C6.36 46.0919 3.75 44.3594 3.75 36.8594C3.75 32.6744 5.295 28.3694 6.795 24.1994C8.0175 20.8019 9.2025 17.4944 9.5475 14.3594H5.25C3.54 14.3594 2.25 11.9369 2.25 8.73438C2.25 7.17438 2.55 5.87688 3.15 4.85688C3.47814 4.31718 3.94117 3.87223 4.49349 3.56582C5.04582 3.25941 5.66841 3.1021 6.3 3.10938H32.325ZM34.5 36.8594H10.485C11.0025 37.9544 11.25 39.4994 11.25 40.9844C11.25 42.4694 11.0025 44.0144 10.485 45.1094H34.5C35.1 45.1094 36 43.4594 36 40.9844C36 38.5094 35.1 36.8594 34.5 36.8594ZM9.735 41.3594H6.765C6.855 43.6094 7.6725 45.0869 8.2425 45.1094H8.625C8.9325 45.0644 9.66 43.6844 9.735 41.3594ZM8.625 36.8594H8.25C7.905 36.8594 7.38 37.4819 7.05 38.6669C6.945 39.0419 6.87 39.4394 6.825 39.8594H9.69C9.5025 37.9844 8.9025 36.9044 8.625 36.8594ZM31.5 12.1094C33.0208 12.1116 34.5114 12.5341 35.8071 13.3303C37.1029 14.1265 38.1533 15.2654 38.8424 16.6211C39.5316 17.9768 39.8325 19.4966 39.7121 21.0127C39.5917 22.5287 39.0545 23.982 38.16 25.2119L45.015 32.0669C45.1379 32.2104 45.2021 32.3949 45.1948 32.5837C45.1875 32.7724 45.1092 32.9515 44.9757 33.085C44.8421 33.2186 44.663 33.2969 44.4743 33.3042C44.2855 33.3115 44.101 33.2472 43.9575 33.1244L37.17 26.3369C35.6425 27.7952 33.6119 28.6091 31.5 28.6094C29.3728 28.5187 27.3629 27.6098 25.8898 26.0726C24.4167 24.5353 23.5944 22.4885 23.5944 20.3594C23.5944 18.2303 24.4167 16.1834 25.8898 14.6462C27.3629 13.109 29.3728 12.2001 31.5 12.1094ZM22.5 29.3594C22.6989 29.3594 22.8897 29.4384 23.0303 29.579C23.171 29.7197 23.25 29.9105 23.25 30.1094C23.25 30.3083 23.171 30.4991 23.0303 30.6397C22.8897 30.7804 22.6989 30.8594 22.5 30.8594H13.5C13.3011 30.8594 13.1103 30.7804 12.9697 30.6397C12.829 30.4991 12.75 30.3083 12.75 30.1094C12.75 29.9105 12.829 29.7197 12.9697 29.579C13.1103 29.4384 13.3011 29.3594 13.5 29.3594H22.5ZM31.5 13.6094C29.7648 13.6912 28.1278 14.4381 26.9288 15.695C25.7297 16.9519 25.0608 18.6223 25.0608 20.3594C25.0608 22.0965 25.7297 23.7669 26.9288 25.0238C28.1278 26.2807 29.7648 27.0276 31.5 27.1094C33.2352 27.0276 34.8722 26.2807 36.0712 25.0238C37.2703 23.7669 37.9392 22.0965 37.9392 20.3594C37.9392 18.6223 37.2703 16.9519 36.0712 15.695C34.8722 14.4381 33.2352 13.6912 31.5 13.6094ZM20.8725 24.7919C20.971 24.7919 21.0685 24.8113 21.1595 24.849C21.2505 24.8867 21.3332 24.9419 21.4028 25.0115C21.4725 25.0812 21.5277 25.1639 21.5654 25.2549C21.6031 25.3459 21.6225 25.4434 21.6225 25.5419C21.6225 25.6404 21.6031 25.7379 21.5654 25.8289C21.5277 25.9199 21.4725 26.0026 21.4028 26.0722C21.3332 26.1418 21.2505 26.1971 21.1595 26.2348C21.0685 26.2725 20.971 26.2919 20.8725 26.2919H11.8725C11.6736 26.2919 11.4828 26.2129 11.3422 26.0722C11.2015 25.9316 11.1225 25.7408 11.1225 25.5419C11.1225 25.343 11.2015 25.1522 11.3422 25.0115C11.4828 24.8709 11.6736 24.7919 11.8725 24.7919H20.8725ZM19.3725 20.2919C19.5714 20.2919 19.7622 20.3709 19.9028 20.5115C20.0435 20.6522 20.1225 20.843 20.1225 21.0419C20.1225 21.2408 20.0435 21.4316 19.9028 21.5722C19.7622 21.7129 19.5714 21.7919 19.3725 21.7919H13.3725C13.1736 21.7919 12.9828 21.7129 12.8422 21.5722C12.7015 21.4316 12.6225 21.2408 12.6225 21.0419C12.6225 20.843 12.7015 20.6522 12.8422 20.5115C12.9828 20.3709 13.1736 20.2919 13.3725 20.2919H19.3725ZM20.1225 15.7919C20.3214 15.7919 20.5122 15.8709 20.6528 16.0115C20.7935 16.1522 20.8725 16.343 20.8725 16.5419C20.8725 16.7408 20.7935 16.9316 20.6528 17.0722C20.5122 17.2129 20.3214 17.2919 20.1225 17.2919H14.8725C14.6736 17.2919 14.4828 17.2129 14.3422 17.0722C14.2015 16.9316 14.1225 16.7408 14.1225 16.5419C14.1225 16.343 14.2015 16.1522 14.3422 16.0115C14.4828 15.8709 14.6736 15.7919 14.8725 15.7919H20.1225ZM6 4.88688C5.78651 4.86057 5.56989 4.87828 5.36351 4.93891C5.15713 4.99953 4.96535 5.10179 4.8 5.23938C4.64519 5.36179 4.51749 5.51503 4.425 5.68938H4.41C4.2975 5.89188 4.2 6.10188 4.11 6.34188C4.635 5.81688 5.2875 5.51688 5.91 5.51688C6.615 5.51688 7.23 5.87688 7.65 6.52188C8.055 7.14438 8.2575 8.01438 8.2575 9.10938C8.2575 10.9094 7.905 12.0794 7.455 12.8594H9.6525C9.6975 10.3094 9.0825 7.88688 7.335 5.63688C7.17341 5.42949 6.97214 5.25637 6.74294 5.1276C6.51373 4.99883 6.26117 4.917 6 4.88688ZM6.72 9.85938H3.8175C4.035 11.6969 4.7475 12.8594 5.25 12.8594C5.7 12.8219 6.57 12.1394 6.7275 9.85938H6.72ZM22.5 11.3594C22.6989 11.3594 22.8897 11.4384 23.0303 11.579C23.171 11.7197 23.25 11.9105 23.25 12.1094C23.25 12.3083 23.171 12.4991 23.0303 12.6397C22.8897 12.7804 22.6989 12.8594 22.5 12.8594H15.75C15.5511 12.8594 15.3603 12.7804 15.2197 12.6397C15.079 12.4991 15 12.3083 15 12.1094C15 11.9105 15.079 11.7197 15.2197 11.579C15.3603 11.4384 15.5511 11.3594 15.75 11.3594H22.5ZM5.895 7.01688C5.46 7.01688 4.845 7.53438 4.605 8.35938H6.705C6.67411 7.99974 6.56397 7.6514 6.3825 7.33938C6.18 7.01688 5.97 7.01688 5.895 7.01688Z" fill="black"/>
</g>
<defs>
<clipPath id="clip0_1_194">
<rect width="48" height="48" fill="white" transform="translate(0 0.859375)"/>
</clipPath>
</defs>
</svg>
